<?xml version="1.0" encoding="utf-8"?>
<svg version="1.1" xmlns="http://www.w3.org/2000/svg" xmlns:xlink="http://www.w3.org/1999/xlink" x="0px" y="0px"
	 viewBox="0 0 512 512" style="enable-background:new 0 0 512 512;" xml:space="preserve">
<g>
	<g>
		<path d="M59.378,24.205c-13.42,0-24.339,10.918-24.339,24.339c0,13.421,10.919,24.339,24.339,24.339
			c13.42,0,24.339-10.919,24.339-24.339C83.717,35.124,72.798,24.205,59.378,24.205z M59.378,57.676
			c-5.035,0-9.132-4.097-9.132-9.132c0-5.035,4.097-9.132,9.132-9.132c5.035,0,9.132,4.096,9.132,9.132S64.413,57.676,59.378,57.676
			z"/>
	</g>
</g>
<g>
	<g>
		<path d="M115.721,24.205c-13.42,0-24.339,10.918-24.339,24.339c0,13.421,10.919,24.339,24.339,24.339
			c13.421,0,24.339-10.919,24.339-24.339C140.06,35.124,129.141,24.205,115.721,24.205z M115.722,57.676
			c-5.035,0-9.132-4.097-9.132-9.132c0-5.035,4.097-9.132,9.132-9.132s9.132,4.096,9.132,9.132S120.756,57.676,115.722,57.676z"/>
	</g>
</g>
<g>
	<g>
		<path d="M172.064,24.205c-13.421,0-24.339,10.918-24.339,24.339c0,13.421,10.919,24.339,24.339,24.339
			c13.42,0,24.339-10.919,24.339-24.339C196.403,35.124,185.484,24.205,172.064,24.205z M172.064,57.676
			c-5.036,0-9.132-4.097-9.132-9.132c0-5.035,4.096-9.132,9.132-9.132c5.035,0,9.132,4.097,9.132,9.132
			C181.196,53.579,177.099,57.676,172.064,57.676z"/>
	</g>
</g>
<g>
	<g>
		<path d="M471.887,0h-292.78c-4.199,0-7.604,3.404-7.604,7.604c0,4.199,3.404,7.604,7.604,7.604h292.78
			c13.729,0,24.9,11.165,24.9,24.89V83.52H15.217V40.097c0-13.724,11.165-24.89,24.89-24.89H153.76c4.199,0,7.604-3.404,7.604-7.604
			c0-4.199-3.404-7.604-7.604-7.604H40.106C17.997,0,0.009,17.987,0.009,40.097v50.958c0,0.023-0.003,0.046-0.003,0.069
			c0,0.023,0.003,0.046,0.003,0.069v260.576c0,22.11,17.987,40.097,40.097,40.097h137.477c4.199,0,7.604-3.404,7.604-7.604
			s-3.404-7.604-7.604-7.604H40.106c-13.724,0-24.89-11.165-24.89-24.89V98.728h481.57v253.041c0,13.724-11.17,24.89-24.9,24.89
			c-4.199,0-7.604,3.404-7.604,7.604s3.404,7.604,7.604,7.604c22.115,0,40.107-17.987,40.107-40.097V40.097
			C511.994,17.987,494.001,0,471.887,0z"/>
	</g>
</g>
<g>
	<g>
		<path d="M456.899,332.313c-3.377-7.46-6.87-15.174-6.87-21.184c0-6.01,3.493-13.724,6.87-21.185
			c5.394-11.914,10.971-24.233,6.147-35.864c-5.016-12.097-18.564-17.137-30.516-21.583c-7.423-2.762-15.1-5.618-19.023-9.54
			s-6.779-11.598-9.539-19.023c-4.447-11.953-9.486-25.501-21.583-30.517c-11.631-4.823-23.952,0.753-35.865,6.147
			c-7.46,3.377-15.174,6.87-21.184,6.87s-13.724-3.493-21.184-6.87c-11.914-5.394-24.232-10.971-35.865-6.147
			c-12.097,5.016-17.137,18.563-21.583,30.516c-2.762,7.423-5.618,15.1-9.54,19.023c-3.923,3.922-11.599,6.778-19.023,9.54
			c-11.953,4.447-25.5,9.486-30.516,21.583c-4.824,11.633,0.753,23.952,6.147,35.865c3.377,7.46,6.87,15.174,6.87,21.184
			c0,6.01-3.493,13.724-6.87,21.184c-5.394,11.914-10.971,24.233-6.147,35.865c5.016,12.097,18.564,17.137,30.516,21.583
			c7.423,2.762,15.1,5.618,19.023,9.54c3.923,3.922,6.779,11.598,9.54,19.023c4.447,11.953,9.485,25.5,21.583,30.517
			c3.125,1.296,6.298,1.84,9.502,1.84c8.72,0,17.651-4.043,26.364-7.988c7.46-3.377,15.174-6.87,21.184-6.87
			s13.724,3.493,21.184,6.87c11.914,5.394,24.233,10.972,35.865,6.147c12.097-5.016,17.137-18.564,21.583-30.516
			c2.762-7.423,5.618-15.1,9.54-19.023c3.922-3.922,11.599-6.779,19.023-9.54c11.953-4.447,25.5-9.486,30.517-21.583
			C467.87,356.546,462.293,344.226,456.899,332.313z M443.045,338.585c4.056,8.96,8.252,18.227,5.953,23.768
			c-2.479,5.979-12.287,9.627-21.772,13.155c-8.951,3.329-18.206,6.772-24.473,13.04c-6.268,6.268-9.711,15.523-13.04,24.474
			c-3.528,9.484-7.177,19.292-13.155,21.771c-5.541,2.299-14.806-1.896-23.767-5.953c-8.931-4.043-18.165-8.223-27.457-8.223
			c-9.292,0-18.526,4.181-27.457,8.223c-8.961,4.056-18.227,8.251-23.767,5.953c-5.979-2.48-9.627-12.287-13.156-21.772
			c-3.329-8.951-6.772-18.206-13.04-24.473c-6.267-6.268-15.523-9.71-24.474-13.04c-9.484-3.528-19.292-7.177-21.771-13.156
			c-2.298-5.542,1.897-14.807,5.953-23.767c4.043-8.931,8.223-18.165,8.223-27.457c0-9.292-4.181-18.526-8.223-27.457
			c-4.056-8.96-8.252-18.226-5.953-23.767c2.479-5.979,12.287-9.627,21.771-13.155c8.951-3.329,18.206-6.773,24.474-13.04
			c6.268-6.266,9.711-15.523,13.04-24.474c3.528-9.484,7.177-19.292,13.156-21.771c1.091-0.452,2.324-0.653,3.673-0.653
			c5.503,0,12.898,3.348,20.095,6.606c8.931,4.043,18.165,8.223,27.457,8.223c9.292,0,18.526-4.181,27.457-8.223
			c8.961-4.056,18.226-8.253,23.768-5.953c5.979,2.479,9.627,12.287,13.156,21.771c3.329,8.951,6.773,18.206,13.04,24.473
			c6.268,6.268,15.523,9.71,24.474,13.04c9.484,3.528,19.292,7.177,21.772,13.156c2.298,5.542-1.897,14.807-5.953,23.767
			c-4.043,8.93-8.223,18.165-8.223,27.457C434.822,320.42,439.002,329.655,443.045,338.585z"/>
	</g>
</g>
<g>
	<g>
		<path d="M325.334,224.698c-5.601,0-11.207,0.54-16.66,1.605c-4.121,0.805-6.81,4.798-6.005,8.921
			c0.805,4.122,4.798,6.809,8.921,6.005c4.495-0.878,9.119-1.323,13.745-1.323c39.273,0,71.224,31.951,71.224,71.224
			c0,39.273-31.951,71.224-71.224,71.224c-39.273,0-71.224-31.951-71.224-71.224c0-23.698,11.741-45.779,31.407-59.064
			c3.479-2.351,4.395-7.078,2.044-10.558c-2.351-3.478-7.077-4.393-10.558-2.044c-23.857,16.118-38.102,42.909-38.102,71.666
			c0,47.658,38.773,86.431,86.431,86.431c47.658,0,86.431-38.773,86.431-86.431S372.994,224.698,325.334,224.698z"/>
	</g>
</g>
<g>
	<g>
		<path d="M315.075,447.14c-3.691-2.001-8.307-0.632-10.309,3.06l-22.565,41.615l-25.561-25.561
			c-1.132-1.133-2.594-1.88-4.177-2.132l-33.134-5.294l18.27-37.442c1.841-3.775,0.275-8.327-3.499-10.168
			c-3.776-1.841-8.326-0.275-10.168,3.499l-22.771,46.666c-1.056,2.166-1.025,4.703,0.086,6.84c1.111,2.137,3.168,3.622,5.548,4.003
			l40.835,6.525l31.022,31.022c1.437,1.437,3.375,2.227,5.376,2.227c0.363,0,0.729-0.026,1.094-0.079
			c2.374-0.345,4.448-1.79,5.591-3.9l27.422-50.572C320.136,453.756,318.767,449.141,315.075,447.14z"/>
	</g>
</g>
<g>
	<g>
		<path d="M449.51,461.382l-22.774-46.666c-1.841-3.774-6.393-5.341-10.168-3.499c-3.774,1.841-5.341,6.394-3.499,10.168
			l18.27,37.442l-33.134,5.294c-1.583,0.253-3.044,0.999-4.177,2.132l-25.561,25.561L345.904,450.2
			c-2.002-3.691-6.616-5.061-10.309-3.06c-3.691,2.002-5.061,6.617-3.06,10.309l27.422,50.572c1.144,2.11,3.217,3.555,5.591,3.9
			c0.365,0.054,0.73,0.079,1.094,0.079c2.001,0,3.94-0.791,5.376-2.227l31.022-31.022l40.835-6.525
			c2.378-0.38,4.437-1.865,5.548-4.003S450.567,463.548,449.51,461.382z"/>
	</g>
</g>
</svg>